<svg width="463" height="357" viewBox="0 0 463 357" fill="none" xmlns="http://www.w3.org/2000/svg">
<path d="M0 250.119C0 278.465 11.2546 305.651 31.288 325.695C51.3214 345.739 78.4924 357 106.824 357H373.884C394.722 357.022 414.908 349.73 430.925 336.393C446.942 323.055 457.775 304.519 461.537 284.012C465.299 263.505 461.752 242.327 451.512 224.168C441.273 206.009 424.992 192.019 405.504 184.636C409.909 172.101 410.723 158.583 407.854 145.609C404.985 132.635 398.548 120.723 389.269 111.217C379.99 101.71 368.239 94.9895 355.344 91.813C342.449 88.6365 328.923 89.131 316.294 93.2405C308.125 61.8892 288.082 34.9498 260.407 18.1271C232.733 1.30433 199.601 -4.08072 168.027 3.11228C136.454 10.3053 108.918 29.5115 91.251 56.6637C73.584 83.816 67.1732 116.782 73.3761 148.581C52.0252 155.632 33.4405 169.24 20.2666 187.47C7.09278 205.7 0.000851628 227.623 0 250.119Z" fill="#E0DEF4"/>
</svg>
